<svg width="553" height="608.8" xmlns="http://www.w3.org/2000/svg">

 <g>
  <title>background</title>
  <rect fill="none" id="canvas_background" height="610.8" width="555" y="-1" x="-1"/>
 </g>
 <g>
  <title>Layer 1</title>
  <path id="svg_1" fill="#f7a116" d="m129.92969,3l0,16.26563c-0.02344,15.74218 2.14453,31.41406 6.44922,46.55859l9.4375,33.19141l72.05078,-71.91016l-12.21875,-6.12891c-23.5,-11.79297 -49.42578,-17.94531 -75.71875,-17.97656zm0,0"/>
  <path id="svg_2" fill="#f7a116" d="m342.12891,21.16016l-12.26172,6.09765l71.90234,72.10157l9.5586,-33.16016c4.34375,-15.13281 6.5625,-30.79688 6.58593,-46.54297l0,-16.26562c-26.29687,-0.03907 -52.24609,6.04687 -75.78515,17.76953zm0,0"/>
  <path id="svg_3" fill="#ee9200" d="m149.53906,339.44141c-14.49218,-1.78907 -27.3789,-10.08203 -35.01172,-22.53125c-7.6289,-12.44922 -9.17187,-27.69532 -4.1914,-41.42188c4.73047,-11.92969 3.78906,-25.36328 -2.56641,-36.51172l-1.51172,-2.51953c-35.34765,4.52344 -62.0664,34.22266 -62.83984,69.84766c-0.77735,35.625 24.625,66.46093 59.73828,72.51953c35.11719,6.05859 69.38281,-14.48047 80.58984,-48.30469c-9.83984,7.24219 -22.08593,10.4336 -34.20703,8.92188zm0,0"/>
  <path id="svg_4" fill="#f7a116" d="m425.34375,427.39063l13.96094,-65.8711c4.46094,-21.05078 -0.8086,-42.98828 -14.34375,-59.71484c-13.53516,-16.72656 -33.89063,-26.46094 -55.40625,-26.49219l-192,-0.26562c-21.51953,-0.02735 -41.90235,9.64843 -55.48438,26.33984c-13.57812,16.69141 -18.91015,38.61328 -14.50781,59.67578l13.78125,65.9375l-8,0c-22.08984,-0.03125 -40.02344,17.85156 -40.05469,39.94531l96,0.125l208,0.29688l96,0.1289c0.03125,-22.08984 -17.85156,-40.02343 -39.94531,-40.05468l-8,-0.05078zm0,0"/>
  <path id="svg_5" fill="#f58f00" d="m475.46484,467.80078c0,-22.09375 -17.90625,-40 -40,-40l-8,0l13.8711,-65.89062c5.6914,-26.95703 -4.66797,-54.77735 -26.60547,-71.44532c-38.6875,101.70313 -136.98438,152.32813 -219.18359,177.33594l279.91796,0zm0,0"/>
  <path id="svg_6" fill="#348fd9" d="m419.46484,179.80078l32,0c0,22.08985 -17.90625,40 -40,40l-32,0c0,-22.09375 17.91016,-40 40,-40zm0,0"/>
  <path id="svg_7" fill="#3086cd" d="m379.46484,219.80078l32,0c22.09375,0 40,17.90625 40,40l-32,0c-22.08984,0 -40,-17.91015 -40,-40zm0,0"/>
  <path id="svg_8" fill="#ffb531" d="m380.46484,171.80078l-208,0l0,32.09375l16,263.90625l64,0l0,-120l48,0l0,120l64,0l16,-263.90625l0,-32.09375zm0,0"/>
  <path id="svg_9" fill="#348fd9" d="m379.46484,179.80078l-208,0l0,24.09375c1.88672,32.60547 19.25,62.33985 46.72266,80c10.66406,6.83203 21.59766,13.23438 32.79688,19.20313c0.48828,0.2539 0.96093,0.54297 1.44921,0.79687l22.5586,11.90625l24,-13.4414l25.79297,-14.39844l3.19922,-1.8086c29.90625,-17.05859 49.24609,-47.99609 51.48046,-82.35156l0,-24zm0,0"/>
  <path id="svg_10" fill="#3086cd" d="m379.46484,179.80078l-208,0l0,24.09375c1.88672,32.60547 19.25,62.33985 46.72266,80c10.66406,6.83203 21.59766,13.23438 32.79688,19.20313c0.48828,0.2539 0.96093,0.54297 1.44921,0.79687l22.5586,11.90625l24,-13.4414l25.79297,-14.39844l3.19922,-1.8086c29.90625,-17.05859 49.24609,-47.99609 51.48046,-82.35156l0,-24zm0,0"/>
  <path id="svg_11" fill="#ffb531" d="m312.26563,243.80078l-73.60157,0c-7.26953,0 -14.32422,-2.47265 -20,-7.01562l-59.19922,-47.38672c-7.58203,-6.07031 -11.99609,-15.25781 -12,-24.97266l0,-59.37109c0,-8.48828 3.375,-16.62891 9.375,-22.62891l45.25,-45.25c6,-6.0039 14.14454,-9.375 22.63282,-9.375l101.48828,0c8.48828,0 16.6289,3.3711 22.6289,9.375l45.25,45.25c6.00391,6 9.375,14.14063 9.375,22.62891l0,59.37109c0,9.71485 -4.41406,18.90235 -12,24.97266l-59.19921,47.3789c-5.67579,4.54297 -12.73047,7.02344 -20,7.02344zm0,0"/>
  <path id="svg_12" fill="#ffd896" d="m343.46484,115.80078c-25.05468,0.44922 -47.20703,16.38672 -55.59765,40l-24.80078,0c-8.39063,-23.61328 -30.54297,-39.55078 -55.60157,-40c-24.6289,0.41406 -46.51171,15.82813 -55.19921,38.87891c-5.17969,13.08984 -1.19922,28.02734 9.80859,36.80078l56.58984,45.30469c5.67578,4.54297 12.73047,7.01562 20,7.01562l73.60157,0c7.26953,0 14.32421,-2.47265 20,-7.01562l56.625,-45.29688c11.00781,-8.77344 14.98828,-23.71094 9.80859,-36.80078c-8.69141,-23.06641 -30.58984,-38.48437 -55.23438,-38.88672zm0,0"/>
  <path id="svg_13" fill="#2e3e51" d="m267.46484,123.80078l16,0c8.83594,0 16,7.16406 16,16c0,8.83594 -7.16406,16 -16,16l-16,0c-8.83593,0 -16,-7.16406 -16,-16c0,-8.83594 7.16407,-16 16,-16zm0,0"/>
  <path id="svg_14" fill="#e94f4f" d="m299.46484,187.80078c0,13.25391 -10.74609,24 -24,24s-24,-10.74609 -24,-24l24,-8l24,8zm0,0"/>
  <path id="svg_15" fill="#2e3e51" d="m235.46484,99.80078c0,8.83594 -7.16406,16 -16,16c-8.83593,0 -16,-7.16406 -16,-16c0,-8.83594 7.16407,-16 16,-16c8.83594,0 16,7.16406 16,16zm0,0"/>
  <path id="svg_16" fill="#2e3e51" d="m347.46484,99.80078c0,8.83594 -7.16406,16 -16,16c-8.83593,0 -16,-7.16406 -16,-16c0,-8.83594 7.16407,-16 16,-16c8.83594,0 16,7.16406 16,16zm0,0"/>
  <path id="svg_17" fill="#ffd896" d="m211.46484,51.80078l16,0l0,16l-16,0l0,-16zm0,0"/>
  <path id="svg_18" fill="#ffd896" d="m323.46484,51.80078l16,0l0,16l-16,0l0,-16zm0,0"/>
  <path id="svg_19" fill="#2e3e51" d="m324.80859,159.35938l-10.04687,15.08984c-1.80859,2.6875 -5.05078,4.03125 -8.23047,3.40625l-23.06641,-4.61719l0,-17.4375l-16,0l0,17.4375l-23.0625,4.61719c-3.17968,0.63672 -6.42578,-0.71094 -8.22656,-3.40625l-10.05469,-15.08984l-13.3125,8.8789l10.0586,15.08203c5.38281,8.10547 15.13672,12.14453 24.67969,10.22266l27.91796,-5.59766l27.92188,5.59766c9.53906,1.94531 19.30859,-2.10156 24.67969,-10.22266l10.05468,-15.08203l-13.3125,-8.8789zm0,0"/>
  <g id="svg_40">
   <path id="svg_38" fill="#C6C5CA" d="m410.349,495.054l0,34.383c0,13.182 10.786,23.969 23.969,23.969l26.251,0c13.183,0 23.969,-10.786 23.969,-23.969l0,-34.383l-74.189,0l0,0z"/>
   <path id="svg_39" fill="#C6C5CA" d="m63.464,495.054l0,34.383c0,13.182 10.786,23.969 23.969,23.969l26.251,0c13.183,0 23.969,-10.786 23.969,-23.969l0,-34.383l-74.189,0l0,0z"/>
  </g>
  <g id="svg_43">
   <path id="svg_41" fill="#ACABB1" d="m103.242,529.435l0,-34.383l-39.777,0l0,34.383c0,13.183 10.786,23.969 23.969,23.969l26.251,0c2.347,0 4.616,-0.348 6.763,-0.984c-9.917,-2.938 -17.206,-12.149 -17.206,-22.985z"/>
   <path id="svg_42" fill="#ACABB1" d="m450.126,529.436l0,-34.383l-39.777,0l0,34.383c0,13.183 10.786,23.969 23.969,23.969l26.251,0c2.347,0 4.616,-0.348 6.763,-0.984c-9.916,-2.939 -17.206,-12.15 -17.206,-22.985z"/>
  </g>
  <circle id="svg_44" fill="#FF3F62" r="39.778" cy="565.846" cx="100.561"/>
  <path id="svg_45" fill="#FF0C38" d="m96.896,526.248c-20.251,1.849 -36.116,18.87 -36.116,39.603c0,20.733 15.865,37.753 36.116,39.603c-9.949,-10.238 -16.086,-24.199 -16.086,-39.603c0,-15.404 6.137,-29.367 16.086,-39.603z"/>
  <circle id="svg_46" fill="#FF3F62" r="39.778" cy="565.846" cx="447.446"/>
  <path id="svg_47" fill="#FF0C38" d="m443.78,526.248c-20.251,1.849 -36.116,18.87 -36.116,39.603c0,20.733 15.865,37.753 36.116,39.603c-9.949,-10.238 -16.086,-24.199 -16.086,-39.603c0,-15.404 6.138,-29.367 16.086,-39.603z"/>
  <path id="svg_48" fill="#3E3D42" d="m100.558,579.431c-7.488,0 -13.581,-6.092 -13.581,-13.581c0,-7.489 6.092,-13.581 13.581,-13.581c7.489,0 13.58,6.092 13.58,13.581c0.001,7.489 -6.091,13.581 -13.58,13.581z"/>
  <path id="svg_49" fill="#2D2D30" d="m100.558,566.986c0,-5.408 3.186,-10.074 7.771,-12.258c-2.204,-1.545 -4.881,-2.459 -7.771,-2.459c-7.488,0 -13.581,6.092 -13.581,13.581c0,7.489 6.092,13.581 13.581,13.581c2.081,0 4.046,-0.484 5.809,-1.325c-3.505,-2.457 -5.809,-6.521 -5.809,-11.12z"/>
  <path id="svg_50" fill="#3E3D42" d="m447.443,579.431c-7.488,0 -13.581,-6.092 -13.581,-13.581c0,-7.489 6.092,-13.581 13.581,-13.581c7.489,0 13.58,6.092 13.58,13.581c0.001,7.489 -6.092,13.581 -13.58,13.581z"/>
  <path id="svg_51" fill="#2D2D30" d="m447.442,566.986c0,-5.408 3.186,-10.074 7.771,-12.258c-2.204,-1.545 -4.881,-2.459 -7.771,-2.459c-7.488,0 -13.581,6.092 -13.581,13.581c0,7.489 6.092,13.581 13.581,13.581c2.081,0 4.046,-0.484 5.809,-1.325c-3.506,-2.457 -5.809,-6.521 -5.809,-11.12z"/>
  <path id="svg_52" fill="#FFC477" d="m522.328,440.051c-10.231,-10.231 -26.817,-10.231 -37.047,0l-16.27,16.27c-4.156,4.156 -9.681,6.444 -15.56,6.444l-358.901,0c-5.877,0 -11.404,-2.29 -15.56,-6.444l-16.27,-16.27c-10.231,-10.231 -26.817,-10.231 -37.047,0s-10.23,26.817 0,37.047l16.27,16.27c14.052,14.052 32.734,21.79 52.607,21.79l358.901,0c19.873,0 38.555,-7.738 52.607,-21.79l16.27,-16.27c10.23,-10.231 10.23,-26.817 0,-37.047z"/>
  <path id="svg_53" fill="#FFB655" d="m168.182,477.098c-4.045,-4.046 -6.484,-9.085 -7.33,-14.333l-66.302,0c-5.877,0 -11.404,-2.29 -15.56,-6.444l-16.27,-16.27c-10.231,-10.231 -26.817,-10.231 -37.047,0s-10.23,26.817 0,37.047l16.27,16.27c14.052,14.052 32.734,21.79 52.607,21.79l142.51,0c-19.873,0 -38.555,-7.738 -52.607,-21.79l-16.271,-16.27z"/>
  <path id="svg_54" fill="#3E3D42" d="m515.878,451.89c3.34,-3.341 5.533,-7.381 6.634,-11.646c-0.063,-0.064 -0.12,-0.131 -0.184,-0.194c-10.231,-10.231 -26.817,-10.231 -37.047,0l-16.27,16.27c-4.156,4.156 -9.681,6.444 -15.56,6.444l-358.901,0c-5.877,0 -11.404,-2.29 -15.56,-6.444l-16.27,-16.27c-10.231,-10.231 -26.817,-10.231 -37.047,0c-0.064,0.064 -0.122,0.13 -0.184,0.194c1.101,4.265 3.294,8.305 6.634,11.646l15.848,15.848c13.687,13.687 31.884,21.225 51.241,21.225l349.578,0c19.356,0 37.553,-7.537 51.241,-21.225l15.847,-15.848z"/>
  <path id="svg_55" fill="#2D2D30" d="m160.852,462.765l-66.302,0c-5.877,0 -11.404,-2.29 -15.56,-6.444l-16.27,-16.27c-10.231,-10.231 -26.817,-10.231 -37.047,0c-0.064,0.064 -0.122,0.13 -0.184,0.194c1.101,4.265 3.294,8.305 6.634,11.646l15.848,15.848c13.687,13.687 31.884,21.225 51.241,21.225l80.835,0l-11.864,-11.864c-4.046,-4.048 -6.485,-9.087 -7.331,-14.335z"/>
 </g>
</svg>